<?xml version="1.0" encoding="UTF-8" standalone="no"?> <svg id="Stroke" xmlns="http://www.w3.org/2000/svg" viewBox="0 0 340 340"><path d="M210.548,121.047c22,.132,54.028.831,82.793,3.384-3.884,3.493-8.566,7.61-12.859,11.137a27.458,27.458,0,0,1-2.3,1.7,3.5,3.5,0,1,0,3.857,5.842,34.562,34.562,0,0,0,2.892-2.134c8.9-7.31,19.412-17.087,21.377-18.923a43.366,43.366,0,0,1,8.821-3.628,2.617,2.617,0,0,1,2.305.418,2.462,2.462,0,0,1,1.021,1.973,15.472,15.472,0,0,1-1.412,7.2,18.793,18.793,0,0,0-2.011,11.191c.7,4.928,1.634,13.975.562,21.934a10.36,10.36,0,0,0-1.647.374,69.432,69.432,0,0,0-9.213,3.758,23.655,23.655,0,0,1-11.64,2.344c-23.868-1.235-57-1.42-80.611-1.357a3.5,3.5,0,0,0,.01,7h.01c23.507-.063,56.517.121,80.229,1.347,1.032.054,2.06.042,3.084-.006a59.785,59.785,0,0,0-5.314,7.317l-5.873,7.831a14.177,14.177,0,0,1-10.049,5.608,3.5,3.5,0,0,0,.311,6.986c.105,0,.212,0,.318-.014a21.186,21.186,0,0,0,15.019-8.38l5.971-7.962c.067-.088.128-.179.186-.273a47.884,47.884,0,0,1,15.517-16q2.112-.865,4.2-1.543a3.38,3.38,0,0,1,3.436.813,3.248,3.248,0,0,1,.9,3.292,27.418,27.418,0,0,1-1.393,3.827,24.664,24.664,0,0,0-2,12.374,181.071,181.071,0,0,1,.724,18.094,3.5,3.5,0,0,0,3.451,3.549h.05a3.5,3.5,0,0,0,3.5-3.451c.1-7.384-.351-14.306-.752-18.812a17.671,17.671,0,0,1,1.4-8.858,34.616,34.616,0,0,0,1.751-4.8,10.3,10.3,0,0,0-2.772-10.25,10.522,10.522,0,0,0-1.928-1.452c1.212-8.426.42-17.735-.512-24.282a11.848,11.848,0,0,1,1.319-7.029,22.32,22.32,0,0,0,2.174-10.457,9.426,9.426,0,0,0-3.852-7.516,9.564,9.564,0,0,0-8.431-1.515,49.786,49.786,0,0,0-10.665,4.451,11.446,11.446,0,0,1-6.72,1.466c-29.469-2.708-62.595-3.438-85.195-3.574a3.5,3.5,0,1,0-.041,7Z"/><path d="M317.044,216.586a56.715,56.715,0,0,0-13.706,6.915A21.6,21.6,0,0,1,289,227.214c-25.043-2.525-57.566-2.918-80.457-2.809a3.5,3.5,0,1,0,.035,7c22.708-.115,54.979.279,79.719,2.774a27.95,27.95,0,0,0,4.377.075c-4.367,4.633-9.589,10.529-14.878,17.331a15.864,15.864,0,0,1-9.565,5.882,66.92,66.92,0,0,1-8.391,1.037,1.243,1.243,0,0,1-.918-.331,1.162,1.162,0,0,1-.376-.867,3.5,3.5,0,0,0-7,0,8.209,8.209,0,0,0,8.224,8.2c.163,0,.327,0,.491-.014a73.932,73.932,0,0,0,9.27-1.147,22.853,22.853,0,0,0,13.79-8.463,231.788,231.788,0,0,1,25.019-27.3,49.408,49.408,0,0,1,10.959-5.372,3.392,3.392,0,0,1,4.445,3.419,28.125,28.125,0,0,1-2.759,11.128,26.791,26.791,0,0,0-3.1,14.8,93.272,93.272,0,0,1,0,18.525,27.845,27.845,0,0,0,1.979,14.384c.773,1.8,1.457,3.554,2.031,5.209a3.036,3.036,0,0,1-.487,2.918,2.95,2.95,0,0,1-2.652,1.119,30.246,30.246,0,0,1-8.314-2.006,27.167,27.167,0,0,0-12.419-2.05c-15.009,1.166-52.906,3.681-80.545,1.846a3.5,3.5,0,0,0-.465,6.984c28.1,1.867,66.392-.672,81.553-1.852a20.321,20.321,0,0,1,9.241,1.557,37.186,37.186,0,0,0,10.239,2.485,10.215,10.215,0,0,0,1.031.053,10.03,10.03,0,0,0,9.432-13.348c-.63-1.813-1.374-3.723-2.213-5.677a20.862,20.862,0,0,1-1.464-10.768,100.125,100.125,0,0,0,.026-20,19.833,19.833,0,0,1,2.325-10.932,34.948,34.948,0,0,0,3.544-13.907,10.391,10.391,0,0,0-13.687-10.515Z"/><path d="M9.259,297.747a3.5,3.5,0,0,0,3.486,3.805h.1a66.807,66.807,0,0,0,27.4-6.774,20.3,20.3,0,0,1,14.81-1.306c45.1,13.525,85.569,6.394,105.681.94a20.056,20.056,0,0,1,14.239,1.365c10.565,5.284,26.329,5.757,26.994,5.775a3.406,3.406,0,0,0,2.662-1.122,3.5,3.5,0,0,0,.912-2.739c-.974-9.333-5.21-19.066-8.594-25.589a24.415,24.415,0,0,1-2.4-15.454c10.795-60.363,6.48-145.077,4.124-178.7a25.127,25.127,0,0,1,3.175-13.85c5.548-10.093,5.333-21.914,5.321-22.412a3.5,3.5,0,0,0-4.186-3.35,91.014,91.014,0,0,0-24.893,9.477,17.017,17.017,0,0,1-11.412,1.726c-41.064-7.99-93.759-2.395-114.51.381A17.108,17.108,0,0,1,40.417,47.16,62.638,62.638,0,0,0,17.26,38.306a3.5,3.5,0,0,0-3.984,3.174c-.628,7.539,1.315,15.174,3.5,21.077l0,.015c.455,1.226.92,2.383,1.375,3.443a24.573,24.573,0,0,1,1.623,13.718C8.4,149.042,17.835,226.213,22.421,256.176a23.994,23.994,0,0,1-4.07,17.628A53.654,53.654,0,0,0,9.259,297.747Zm20.082-42.63C24.835,225.681,15.6,150.2,26.474,82.229c4.915,11.6,9.926,26.81,9.948,40.666-.026.5-.151,3.013-.308,7.028a3.5,3.5,0,0,0,3.361,3.635l.138,0a3.5,3.5,0,0,0,3.495-3.363c.175-4.443.309-7.02.309-7.032,0-.061,0-.121,0-.182,0-27.98-18.081-59.542-20.159-63.077A48.083,48.083,0,0,1,20.2,46.055,53.917,53.917,0,0,1,36.54,52.988,24.121,24.121,0,0,0,53.091,56.86c20.407-2.73,72.2-8.239,112.245-.448a24.026,24.026,0,0,0,16.112-2.458,89.294,89.294,0,0,1,18.464-7.687,39.62,39.62,0,0,1-4.2,14.462,32.111,32.111,0,0,0-4.023,17.711c1.825,26.027,6.924,115.711-4.032,176.975a31.455,31.455,0,0,0,3.078,19.909,78.393,78.393,0,0,1,7.183,18.942c-5.086-.472-13.693-1.691-19.813-4.75a27.04,27.04,0,0,0-19.2-1.861c-19.391,5.258-58.407,12.136-101.839-.889a27.281,27.281,0,0,0-19.9,1.727,60.007,60.007,0,0,1-20.212,5.784,46.6,46.6,0,0,1,7.113-16.421A30.954,30.954,0,0,0,29.341,255.117Z"/><path d="M113.109,182.846a124.723,124.723,0,0,0,.631,31.281,3.638,3.638,0,0,0,6.221,1.611l5.217-6.707a21.759,21.759,0,0,0,4.592-13.192,57.093,57.093,0,0,1,.886-10.27,9.543,9.543,0,0,1,7-7.394c8.776-2.268,28.481-10.79,21.949-40.865a3.492,3.492,0,0,0-3.75-2.742c-.79.075-17.644,1.9-32.421,20.441a32.529,32.529,0,0,0-12.961-11.573,35.549,35.549,0,0,0-14.969-3.57c-8.545-.249-11.57-3.816-11.647-3.905a3.5,3.5,0,0,0-6.25,2.721C82.8,167.132,103.055,178.756,113.109,182.846Zm8.487-10a20.305,20.305,0,0,1,2.721-6.968c10.48-16.9,23.25-22.133,29.071-23.7,2.979,19.534-7.694,26.689-17.489,29.221a16.57,16.57,0,0,0-12.12,12.869,64.014,64.014,0,0,0-1.009,11.544,14.715,14.715,0,0,1-3.061,8.849A127.3,127.3,0,0,1,121.6,172.849Zm-26.3-25.986a28.609,28.609,0,0,1,12.043,2.834,25.871,25.871,0,0,1,11.63,11.565c-.2.312-.4.611-.6.929a27.266,27.266,0,0,0-3.651,9.364c-.224,1.19-.46,2.569-.694,4.081a49.394,49.394,0,0,1-27.51-30.225A30.644,30.644,0,0,0,95.294,146.863Z"/><path d="M43.106,206.811a3.5,3.5,0,1,0-6.99.364c.914,17.515,2.582,31.168,4.971,40.623.026.1,2.54,10.142-1.526,17.022a3.5,3.5,0,1,0,6.026,3.561c5.609-9.491,2.4-21.865,2.275-22.342C45.6,237.069,44,223.871,43.106,206.811Z"/><path d="M44.12,194.346h1.271a3.5,3.5,0,0,0,0-7H44.12a1.729,1.729,0,0,1-1.719-1.691c-.122-7.2-.147-14.866-.077-22.792a3.5,3.5,0,1,0-7-.062c-.071,7.985-.045,15.714.079,22.973A8.76,8.76,0,0,0,44.12,194.346Z"/><path d="M38.987,150.866h.088a3.5,3.5,0,0,0,3.5-3.413l.049-1.99a3.5,3.5,0,0,0-7-.178l-.049,2A3.5,3.5,0,0,0,38.987,150.866Z"/><path d="M246.364,148.887c4.576,0,9.043-.041,13.039-.1a8.232,8.232,0,0,0,8.078-8.2v-.4a3.5,3.5,0,0,0-7,0v.4a1.2,1.2,0,0,1-1.177,1.2c-12.478.179-29.542.2-39.99-.707a3.5,3.5,0,1,0-.606,6.973C226.051,148.7,236.469,148.887,246.364,148.887Z"/><path d="M217.266,201.7c4.249-.327,11.028-.44,20.163-.33h.042a3.5,3.5,0,0,0,.04-7c-9.329-.111-16.327.007-20.782.349a3.5,3.5,0,0,0,.265,6.99C217.084,201.713,217.175,201.71,217.266,201.7Z"/><path d="M256.606,201.813l.113,0a3.5,3.5,0,0,0,.108-7l-3.346-.1a3.5,3.5,0,0,0-.2,7Z"/><path d="M235.42,264.629a3.5,3.5,0,0,0,.134-7c-12.276-.476-24.444-.658-24.565-.66h-.053a3.5,3.5,0,0,0-.05,7c.121,0,12.208.183,24.4.657Z"/></svg>