<svg width="421" height="264" viewBox="0 0 421 264" fill="none" xmlns="http://www.w3.org/2000/svg">
<path d="M94.6 70C99.6667 74.6667 103.4 80.2667 105.8 86.8C108.2 93.2 109.133 99.6 108.6 106C108.067 112.133 106.133 117.8 102.8 123C99.4667 128.067 94.4 131.933 87.6 134.6C82.2667 136.867 77 138.467 71.8 139.4C66.6 140.333 60.8667 141.067 54.6 141.6C51.8 141.867 49.4 142.067 47.4 142.2C45.5333 142.2 43.3333 142.267 40.8 142.4C40.2667 142.4 39.3333 142.4 38 142.4C36.8 142.4 35.9333 142.467 35.4 142.6V184C35 186.533 34.4667 189.133 33.8 191.8C33.2667 194.467 31.7333 196.533 29.2 198C27.7333 198.8 25.9333 199.267 23.8 199.4C21.6667 199.533 19.7333 199.467 18 199.2C16.1333 198.933 14.5333 198.467 13.2 197.8C12 197 11 195.667 10.2 193.8C9.66667 192.6 9.13333 191.267 8.6 189.8C8.2 188.2 8 186.267 8 184V73.4C8 72.4667 8.06667 71.6 8.2 70.8C8.33333 70 8.46667 69.2 8.6 68.4C8.86667 67.7333 9.06667 67 9.2 66.2C9.33333 65.4 9.53333 64.6667 9.8 64C10.0667 63.3333 10.3333 62.7333 10.6 62.2C11 61.6667 11.4667 61.2 12 60.8C12.6667 60.1333 13.6667 59.5333 15 59C16.4667 58.4667 18.6 58.2 21.4 58.2H21.8C25.9333 57.9333 30.5333 57.7333 35.6 57.6C40.6667 57.3333 44.8667 57.4 48.2 57.8C50.0667 58.0667 51.8 58.2667 53.4 58.4C55 58.4 56.5333 58.4667 58 58.6C59.6 58.7333 61.2 58.8667 62.8 59C64.4 59.1333 66 59.3333 67.6 59.6C68.9333 59.8667 70.1333 60.0667 71.2 60.2C72.4 60.3333 73.6 60.5333 74.8 60.8C75.8667 61.0667 77 61.3333 78.2 61.6C79.5333 61.8667 80.7333 62.3333 81.8 63C84.6 63.8 86.9333 64.8 88.8 66C90.6667 67.2 92.6 68.5333 94.6 70ZM82.6 103C82.7333 99.8 82.0667 97 80.6 94.6C79.2667 92.2 77.3333 90.2 74.8 88.6C72.2667 87 69.4 85.7333 66.2 84.8C63 83.8667 59.8 83.2 56.6 82.8C55.8 82.8 54.6667 82.8 53.2 82.8C51.8667 82.6667 50.4 82.6 48.8 82.6C47.2 82.4667 45.6667 82.4 44.2 82.4C42.8667 82.2667 41.8 82.2 41 82.2C40.3333 82.0667 39.5333 82 38.6 82C37.6667 82 36.6 82 35.4 82C35.5333 86.1333 35.6 90.1333 35.6 94C35.6 97.7333 35.6 101.8 35.6 106.2C35.4667 108.6 35.4 111 35.4 113.4C35.4 115.8 35.4 118.133 35.4 120.4L47.8 120.2C51 120.2 54.5333 120 58.4 119.6C62.2667 119.2 65.9333 118.4 69.4 117.2C72.8667 116 75.8 114.267 78.2 112C80.7333 109.733 82.2 106.733 82.6 103ZM151.592 183C151.459 183.667 151.326 184.333 151.192 185C151.192 185.533 151.192 186.133 151.192 186.8L149.992 191C149.726 191.533 149.526 191.867 149.392 192L148.792 193.2C148.126 194.667 146.926 195.867 145.192 196.8C141.992 198.4 138.592 198.8 134.992 198C132.726 197.733 130.926 197.067 129.592 196C128.259 195.067 127.326 193.933 126.792 192.6C126.259 191.267 125.859 189.933 125.592 188.6C125.192 187.267 124.992 186.067 124.992 185V73C124.992 72.0667 124.992 71.2667 124.992 70.6C125.126 69.8 125.259 69.0667 125.392 68.4C125.526 67.4667 125.659 66.6667 125.792 66C126.059 65.3333 126.326 64.6 126.592 63.8C126.992 62.4667 127.726 61.4 128.792 60.6C130.392 59.4 131.926 58.7333 133.392 58.6C134.326 58.3333 135.192 58.2 135.992 58.2C136.792 58.0667 137.726 58 138.792 58C140.659 58 142.792 58.5333 145.192 59.6C147.059 60.6667 148.392 62.1333 149.192 64C150.526 66.6667 151.192 69.1333 151.192 71.4C151.326 72.7333 151.392 74.7333 151.392 77.4C151.526 80.0667 151.592 82.0667 151.592 83.4V84.2C151.859 88.4667 151.992 92.6 151.992 96.6C151.992 100.467 151.926 104.733 151.792 109.4C151.792 113.933 151.726 118.333 151.592 122.6C151.592 126.733 151.592 130.867 151.592 135V177C151.592 177.533 151.592 178.067 151.592 178.6C151.726 179 151.792 179.467 151.792 180C151.792 181.333 151.726 182.333 151.592 183Z" fill="#186F65"/>
<path d="M175.7 64.9C177.7 63.9 179.8 63.2 182 62.8C184.2 62.3333 186.367 62.2333 188.5 62.5C190.7 62.7 192.8 63.2667 194.8 64.2C196.8 65.0667 198.667 66.3333 200.4 68C202.133 69.7333 203.467 71.6333 204.4 73.7C205.333 75.7667 206 78.0667 206.4 80.6C206.667 82.3333 207.1 83.9333 207.7 85.4C208.3 86.8667 208.933 88.3333 209.6 89.8C210.333 91.2667 211 92.7333 211.6 94.2C212.267 95.6667 212.8 97.2 213.2 98.8C213.533 100.333 213.4 101.833 212.8 103.3C212.267 104.7 211.133 105.567 209.4 105.9C208.4 106.1 207.433 106.033 206.5 105.7C205.633 105.3 204.833 104.767 204.1 104.1C203.367 103.367 202.7 102.6 202.1 101.8C201.567 100.933 201.067 100.133 200.6 99.4C199.067 101.4 197.4 102.967 195.6 104.1C193.8 105.167 191.633 105.867 189.1 106.2C186.967 106.467 184.933 106.533 183 106.4C181.067 106.267 179 105.9 176.8 105.3C173.933 104.567 171.567 103.3 169.7 101.5C167.9 99.6333 166.5 97.5 165.5 95.1C164.567 92.6333 164.067 90 164 87.2C163.933 84.4 164.267 81.6333 165 78.9C165.933 75.3 167.333 72.3667 169.2 70.1C171.067 67.8333 173.233 66.1 175.7 64.9ZM178.2 76.6C177.267 77.5333 176.533 78.6333 176 79.9C175.467 81.1667 175.133 82.5 175 83.9C174.933 85.3 175.067 86.7 175.4 88.1C175.733 89.5 176.267 90.7333 177 91.8C177.667 92.7333 178.8 93.5333 180.4 94.2C182 94.8 183.667 95.1667 185.4 95.3C187.4 95.4333 189.133 94.9 190.6 93.7C192.133 92.5 193.267 91 194 89.2C194.8 87.3333 195.167 85.3667 195.1 83.3C195.033 81.1667 194.467 79.2333 193.4 77.5C192.6 76.2333 191.533 75.3 190.2 74.7C188.933 74.1 187.567 73.8 186.1 73.8C184.633 73.7333 183.167 73.9667 181.7 74.5C180.3 74.9667 179.133 75.6667 178.2 76.6ZM221.62 71.3C221.62 69.7667 221.586 68.1333 221.52 66.4C221.52 64.6667 221.82 63.1 222.42 61.7C222.953 60.4333 223.82 59.5333 225.02 59C226.286 58.4 227.52 58.2667 228.72 58.6C229.92 58.8 230.853 59.1667 231.52 59.7C232.186 60.2333 232.653 60.8667 232.92 61.6C233.253 62.2667 233.453 63.0667 233.52 64C233.586 64.8667 233.653 65.7333 233.72 66.6C234.386 65.4 235.22 64.4333 236.22 63.7C237.22 62.9667 238.253 62.3667 239.32 61.9C240.386 61.4333 241.386 61.1 242.32 60.9C243.32 60.7 244.086 60.6 244.62 60.6C247.153 60.6 249.653 61.1667 252.12 62.3C254.653 63.3667 256.753 64.9 258.42 66.9C259.353 68.1 260.053 69.3667 260.52 70.7C261.053 71.9667 261.42 73.3 261.62 74.7C261.886 76.1 262.053 77.5333 262.12 79C262.186 80.4 262.253 81.8333 262.32 83.3C262.653 87.5667 262.653 91.8 262.32 96C262.253 96.8667 262.22 97.8667 262.22 99C262.22 100.133 262.12 101.267 261.92 102.4C261.786 103.467 261.486 104.433 261.02 105.3C260.62 106.1 259.92 106.6 258.92 106.8C257.52 107.133 256.353 107.2 255.42 107C254.553 106.867 253.853 106.567 253.32 106.1C252.786 105.633 252.386 105.033 252.12 104.3C251.853 103.567 251.62 102.733 251.42 101.8C251.286 101.067 251.153 100.233 251.02 99.3C250.953 98.3 250.886 97.3 250.82 96.3C250.82 95.3 250.786 94.3333 250.72 93.4C250.72 92.4 250.72 91.5 250.72 90.7C250.72 89.4333 250.686 88.0333 250.62 86.5C250.553 84.9667 250.553 83.5333 250.62 82.2C250.62 79.0667 249.786 76.7 248.12 75.1C246.52 73.4333 244.32 72.7333 241.52 73C239.386 73.2667 237.52 74.1333 235.92 75.6C234.32 77 233.553 78.8333 233.62 81.1C233.62 81.9667 233.62 82.7667 233.62 83.5C233.62 84.2333 233.586 84.9667 233.52 85.7C233.52 86.4333 233.52 87.2333 233.52 88.1C233.52 88.9667 233.52 89.9333 233.52 91C233.52 93.2 233.52 95.5333 233.52 98C233.52 100.4 233.22 102.367 232.62 103.9C232.086 105.5 231.186 106.6 229.92 107.2C228.653 107.8 227.153 107.633 225.42 106.7C224.686 106.3 224.086 105.767 223.62 105.1C223.22 104.367 222.886 103.6 222.62 102.8C222.42 102 222.286 101.2 222.22 100.4C222.153 99.5333 222.086 98.7333 222.02 98C221.82 95.8 221.686 93.7667 221.62 91.9C221.62 89.9667 221.62 87.9 221.62 85.7V71.3Z" fill="#186F65"/>
<path d="M175.7 156.9C177.7 155.9 179.8 155.2 182 154.8C184.2 154.333 186.367 154.233 188.5 154.5C190.7 154.7 192.8 155.267 194.8 156.2C196.8 157.067 198.667 158.333 200.4 160C202.133 161.733 203.467 163.633 204.4 165.7C205.333 167.767 206 170.067 206.4 172.6C206.667 174.333 207.1 175.933 207.7 177.4C208.3 178.867 208.933 180.333 209.6 181.8C210.333 183.267 211 184.733 211.6 186.2C212.267 187.667 212.8 189.2 213.2 190.8C213.533 192.333 213.4 193.833 212.8 195.3C212.267 196.7 211.133 197.567 209.4 197.9C208.4 198.1 207.433 198.033 206.5 197.7C205.633 197.3 204.833 196.767 204.1 196.1C203.367 195.367 202.7 194.6 202.1 193.8C201.567 192.933 201.067 192.133 200.6 191.4C199.067 193.4 197.4 194.967 195.6 196.1C193.8 197.167 191.633 197.867 189.1 198.2C186.967 198.467 184.933 198.533 183 198.4C181.067 198.267 179 197.9 176.8 197.3C173.933 196.567 171.567 195.3 169.7 193.5C167.9 191.633 166.5 189.5 165.5 187.1C164.567 184.633 164.067 182 164 179.2C163.933 176.4 164.267 173.633 165 170.9C165.933 167.3 167.333 164.367 169.2 162.1C171.067 159.833 173.233 158.1 175.7 156.9ZM178.2 168.6C177.267 169.533 176.533 170.633 176 171.9C175.467 173.167 175.133 174.5 175 175.9C174.933 177.3 175.067 178.7 175.4 180.1C175.733 181.5 176.267 182.733 177 183.8C177.667 184.733 178.8 185.533 180.4 186.2C182 186.8 183.667 187.167 185.4 187.3C187.4 187.433 189.133 186.9 190.6 185.7C192.133 184.5 193.267 183 194 181.2C194.8 179.333 195.167 177.367 195.1 175.3C195.033 173.167 194.467 171.233 193.4 169.5C192.6 168.233 191.533 167.3 190.2 166.7C188.933 166.1 187.567 165.8 186.1 165.8C184.633 165.733 183.167 165.967 181.7 166.5C180.3 166.967 179.133 167.667 178.2 168.6ZM221.62 163.3C221.62 161.767 221.586 160.133 221.52 158.4C221.52 156.667 221.82 155.1 222.42 153.7C222.953 152.433 223.82 151.533 225.02 151C226.286 150.4 227.52 150.267 228.72 150.6C229.92 150.8 230.853 151.167 231.52 151.7C232.186 152.233 232.653 152.867 232.92 153.6C233.253 154.267 233.453 155.067 233.52 156C233.586 156.867 233.653 157.733 233.72 158.6C234.386 157.4 235.22 156.433 236.22 155.7C237.22 154.967 238.253 154.367 239.32 153.9C240.386 153.433 241.386 153.1 242.32 152.9C243.32 152.7 244.086 152.6 244.62 152.6C247.153 152.6 249.653 153.167 252.12 154.3C254.653 155.367 256.753 156.9 258.42 158.9C259.353 160.1 260.053 161.367 260.52 162.7C261.053 163.967 261.42 165.3 261.62 166.7C261.886 168.1 262.053 169.533 262.12 171C262.186 172.4 262.253 173.833 262.32 175.3C262.653 179.567 262.653 183.8 262.32 188C262.253 188.867 262.22 189.867 262.22 191C262.22 192.133 262.12 193.267 261.92 194.4C261.786 195.467 261.486 196.433 261.02 197.3C260.62 198.1 259.92 198.6 258.92 198.8C257.52 199.133 256.353 199.2 255.42 199C254.553 198.867 253.853 198.567 253.32 198.1C252.786 197.633 252.386 197.033 252.12 196.3C251.853 195.567 251.62 194.733 251.42 193.8C251.286 193.067 251.153 192.233 251.02 191.3C250.953 190.3 250.886 189.3 250.82 188.3C250.82 187.3 250.786 186.333 250.72 185.4C250.72 184.4 250.72 183.5 250.72 182.7C250.72 181.433 250.686 180.033 250.62 178.5C250.553 176.967 250.553 175.533 250.62 174.2C250.62 171.067 249.786 168.7 248.12 167.1C246.52 165.433 244.32 164.733 241.52 165C239.386 165.267 237.52 166.133 235.92 167.6C234.32 169 233.553 170.833 233.62 173.1C233.62 173.967 233.62 174.767 233.62 175.5C233.62 176.233 233.586 176.967 233.52 177.7C233.52 178.433 233.52 179.233 233.52 180.1C233.52 180.967 233.52 181.933 233.52 183C233.52 185.2 233.52 187.533 233.52 190C233.52 192.4 233.22 194.367 232.62 195.9C232.086 197.5 231.186 198.6 229.92 199.2C228.653 199.8 227.153 199.633 225.42 198.7C224.686 198.3 224.086 197.767 223.62 197.1C223.22 196.367 222.886 195.6 222.62 194.8C222.42 194 222.286 193.2 222.22 192.4C222.153 191.533 222.086 190.733 222.02 190C221.82 187.8 221.686 185.767 221.62 183.9C221.62 181.967 221.62 179.9 221.62 177.7V163.3ZM309.337 154.9C309.87 156.167 309.903 157.567 309.437 159.1C309.037 160.633 308.27 161.633 307.137 162.1C306.537 162.367 305.737 162.6 304.737 162.8C303.737 162.933 302.637 163.067 301.437 163.2C300.303 163.333 299.17 163.433 298.037 163.5C296.903 163.567 295.937 163.6 295.137 163.6C295.203 165.6 295.27 167.667 295.337 169.8C295.403 171.867 295.47 173.9 295.537 175.9C295.603 177.9 295.637 179.833 295.637 181.7C295.637 183.5 295.603 185.133 295.537 186.6C295.537 187.6 295.537 188.767 295.537 190.1C295.537 191.367 295.437 192.6 295.237 193.8C295.103 195 294.87 196.067 294.537 197C294.203 197.867 293.703 198.433 293.037 198.7C290.97 199.567 289.07 199.8 287.337 199.4C285.67 199.067 284.47 198.367 283.737 197.3C283.203 196.433 282.803 195.433 282.537 194.3C282.27 193.1 282.07 191.9 281.937 190.7C281.87 189.433 281.837 188.233 281.837 187.1C281.903 185.9 281.937 184.867 281.937 184C282.003 181.2 282.037 178.033 282.037 174.5C282.103 170.9 282.137 167.3 282.137 163.7H280.637C279.837 163.7 278.803 163.7 277.537 163.7C276.337 163.633 275.103 163.533 273.837 163.4C272.637 163.2 271.503 162.967 270.437 162.7C269.37 162.367 268.603 161.9 268.137 161.3C267.403 160.433 266.937 159.5 266.737 158.5C266.603 157.5 266.67 156.567 266.937 155.7C267.27 154.767 267.77 153.967 268.437 153.3C269.103 152.567 269.87 152.1 270.737 151.9C271.937 151.567 273.637 151.4 275.837 151.4C278.037 151.333 280.103 151.333 282.037 151.4C281.97 150.733 281.937 150.1 281.937 149.5C281.937 148.833 281.903 148.2 281.837 147.6C281.77 146.8 281.737 145.8 281.737 144.6C281.737 143.333 281.803 142.1 281.937 140.9C282.137 139.633 282.437 138.467 282.837 137.4C283.237 136.267 283.803 135.4 284.537 134.8C285.537 134 286.537 133.567 287.537 133.5C288.603 133.367 289.57 133.5 290.437 133.9C291.37 134.3 292.137 134.9 292.737 135.7C293.403 136.433 293.87 137.267 294.137 138.2C294.337 139 294.503 139.967 294.637 141.1C294.77 142.167 294.837 143.3 294.837 144.5C294.903 145.7 294.937 146.9 294.937 148.1C294.937 149.3 294.937 150.4 294.937 151.4H295.937C296.937 151.4 298.103 151.367 299.437 151.3C300.77 151.233 302.07 151.267 303.337 151.4C304.67 151.533 305.87 151.867 306.937 152.4C308.003 152.867 308.803 153.7 309.337 154.9Z" fill="#186F65"/>
<path d="M27 193C30.8787 193 11.8913 190.764 15.5 192C13.5 195.5 43.6188 214.497 58.0001 217.5C73.6186 220.761 129.135 218.618 145 219C160.844 219.382 157.548 219 173.5 219C190.148 219 194.352 219 211 219C223.177 219 266.5 223 295.278 219C322 215.286 343 206 337 188.5C334.22 180.392 322 158.823 322 150.136C322 136.94 324.941 118.683 320.056 106.469C317.247 99.4489 312.951 91.9758 307.5 86.5248C305 84.0248 302.5 81.5248 300 79.0248C297.561 76.586 297.421 73.4103 295.5 70.6359C292.279 65.9828 291.13 60.321 287.611 55.6914C285.5 52.9137 286 48.815 286 45.0248C285.889 35.247 286.7 36.3239 285.889 32.4692C285.108 28.7618 284 26.3398 284 22.4692C284 17.8084 282.39 9.38084 285.5 5.58033C288.697 1.67304 305.271 18.5786 305.944 23.9692C306.313 26.9204 308.239 28.4499 310 30.6914C312.647 34.0609 312.18 36.1539 313.222 39.8025C315.226 46.8152 314.828 54.7965 317.778 61.0248C320.013 65.7433 318 75.795 318 81.247C318 86.0322 318.397 91.0399 318 95.8025C317.566 101.012 316.109 85.4737 316 80.247C315.931 76.9582 314 74.673 314 71.0248C314 63.739 318.971 59.3007 322.778 53.4692C327.52 46.2048 333.947 40.7739 340.556 35.247C345.804 30.8575 351.826 27.1517 358.556 25.4692C365.864 23.6422 365 26.843 365 33.247C365 41.6961 364.819 47.3419 361.222 55.1359C359.337 59.2204 359.074 63.7317 357.278 67.747C355.772 71.1126 351.557 72.5573 349 75.0248C343.484 80.3473 339.024 86.0006 333.667 91.3581C330.89 94.1349 327.278 97.874 324 99.8025C319.925 102.2 322.084 101.858 325.556 99.247C333.624 93.1779 341.509 84.1444 350.778 80.0248C357.898 76.8602 363.462 70.594 371.111 68.4692C373.778 67.7284 415.227 67.1749 415.333 68.0248C415.556 69.8079 404.08 78.9446 402.778 80.247C399.448 83.5765 396.18 86.9899 392.778 90.247C388.707 94.1444 383.323 95.6025 379 99.0248C375.263 101.983 369.068 103.308 364.778 105.803C360.94 108.034 354.957 108.932 350.667 109.025C344.849 109.151 337.32 110.423 332.222 107.025C328.91 104.817 320 103.987 320 99.0248" stroke="#186F65" stroke-width="10" stroke-linecap="round"/>
</svg>
